# Blender 3.5.1
# www.blender.org
o Circle
v 0.514421 0.142130 0.688390
v 0.546262 0.260558 0.693424
v 0.567878 0.379779 0.752889
v 0.567878 0.452634 0.841885
v 0.567878 0.478217 0.946863
v 0.567878 0.452634 1.051841
v 0.567878 0.379779 1.140837
v 0.546262 0.260558 1.200302
v 0.514421 0.142130 1.205058
v 0.567878 0.376165 -0.642789
v 0.567878 0.449020 -0.731785
v 0.567878 0.466262 -0.836763
v 0.567878 0.449020 -0.941741
v 0.567878 0.376165 -1.030737
v 0.546262 0.256943 -1.090202
v 0.514421 0.162148 -1.110527
v 0.546262 0.256943 -0.583323
v 0.514421 0.138515 -0.578568
v 0.567878 0.379779 1.376581
v 0.567878 0.452634 1.376581
v 0.567878 0.478217 1.376581
v 0.567878 0.498235 -1.400986
v 0.567878 0.472652 -1.411443
v 0.567878 0.399798 -1.474216
v 0.546262 0.280576 -1.466489
v 0.514421 0.184390 -1.414076
v 0.514421 0.142130 1.377137
v 0.550205 0.551072 1.316032
v 0.550205 0.567579 0.946863
v 0.550205 0.587597 -0.836763
v 0.550205 0.587597 -1.408613
v 0.546262 0.260558 1.376581
v 0.567878 0.478217 1.071471
v 0.550205 0.567579 1.140039
v 0.550205 0.569844 0.745046
v 0.567878 0.477962 0.820959
v 0.567878 0.467099 -0.718078
v 0.550205 0.585259 -0.628502
v 0.550205 0.587597 -1.022344
v 0.567878 0.473192 -0.955800
v 0.567878 0.475558 0.525954
v 0.546262 0.259945 0.525954
v 0.567878 0.451803 0.525954
v 0.567878 0.379070 0.525954
v 0.550205 0.572798 0.525954
v 0.514421 0.141523 0.526510
v 0.567878 0.469732 -0.330913
v 0.546262 0.257751 -0.284904
v 0.567878 0.449916 -0.326613
v 0.567878 0.376990 -0.310784
v 0.550205 0.582311 -0.355348
v 0.514421 0.139386 -0.258658
v 0.472388 0.567578 1.280661
v 0.472388 0.645396 0.946863
v 0.460794 0.682005 -0.836763
v 0.472388 0.684279 -1.408613
v 0.472388 0.605308 1.140039
v 0.472388 0.659451 0.737972
v 0.461677 0.679841 -0.628502
v 0.472388 0.684279 -1.022344
v 0.474400 0.648652 0.525954
v 0.466353 0.668377 -0.329408
v 0.391860 0.850992 -0.628502
v 0.391877 0.850951 0.043140
v 0.377981 0.885016 -0.329408
v 0.567878 0.472645 -0.037051
v 0.546262 0.258848 -0.037051
v 0.567878 0.450859 -0.037051
v 0.567878 0.378030 -0.037051
v 0.550205 0.577555 -0.037051
v 0.514421 0.140454 -0.037051
v 0.470377 0.658514 -0.037051
v 0.387156 0.862525 -0.037051
v -0.514421 0.142129 0.688390
v -0.546262 0.260558 0.693424
v -0.567878 0.379779 0.752889
v -0.567878 0.452634 0.841885
v -0.567878 0.478217 0.946863
v -0.567878 0.452634 1.051841
v -0.567878 0.379779 1.140837
v -0.546262 0.260558 1.200302
v -0.514421 0.142129 1.205058
v -0.567878 0.376165 -0.642789
v -0.567878 0.449020 -0.731785
v -0.567878 0.466262 -0.836763
v -0.567878 0.449020 -0.941741
v -0.567878 0.376165 -1.030737
v -0.546262 0.256943 -1.090202
v -0.514421 0.162148 -1.110527
v -0.546262 0.256943 -0.583323
v -0.514421 0.138515 -0.578568
v -0.567878 0.379779 1.376581
v -0.567878 0.452634 1.376581
v -0.567878 0.478217 1.376581
v -0.567878 0.498235 -1.400986
v -0.567878 0.472652 -1.411443
v -0.567878 0.399798 -1.474216
v -0.546262 0.280576 -1.466489
v -0.514421 0.184390 -1.414076
v -0.514421 0.142129 1.377137
v -0.550205 0.551072 1.316032
v -0.550205 0.567579 0.946863
v -0.550205 0.587597 -0.836763
v -0.550205 0.587597 -1.408613
v -0.546262 0.260558 1.376581
v -0.567878 0.478217 1.071471
v -0.550205 0.567579 1.140039
v -0.550205 0.569844 0.745046
v -0.567878 0.477962 0.820959
v -0.567878 0.467099 -0.718078
v -0.550205 0.585259 -0.628502
v -0.550205 0.587597 -1.022344
v -0.567878 0.473192 -0.955800
v -0.567878 0.475557 0.525954
v -0.546262 0.259945 0.525954
v -0.567878 0.451803 0.525954
v -0.567878 0.379069 0.525954
v -0.550205 0.572798 0.525954
v -0.514421 0.141522 0.526510
v -0.567878 0.469732 -0.330913
v -0.546262 0.257751 -0.284904
v -0.567878 0.449916 -0.326613
v -0.567878 0.376990 -0.310784
v -0.550205 0.582311 -0.355348
v -0.514421 0.139386 -0.258658
v -0.472388 0.567578 1.280661
v -0.472388 0.645396 0.946863
v -0.460794 0.682005 -0.836763
v -0.472388 0.684279 -1.408613
v -0.472388 0.605308 1.140039
v -0.472388 0.659451 0.737972
v -0.461677 0.679841 -0.628502
v -0.472388 0.684279 -1.022344
v -0.474400 0.648652 0.525954
v -0.466353 0.668377 -0.329408
v -0.391860 0.850992 -0.628502
v -0.391877 0.850951 0.043140
v -0.377981 0.885016 -0.329408
v -0.567878 0.472645 -0.037051
v -0.546262 0.258848 -0.037051
v -0.567878 0.450859 -0.037051
v -0.567878 0.378030 -0.037051
v -0.550205 0.577554 -0.037051
v -0.514421 0.140454 -0.037051
v -0.470377 0.658514 -0.037051
v -0.387156 0.862525 -0.037051
vn 0.9657 -0.2597 0.0010
vn 0.9839 -0.1786 0.0006
vn 1.0000 -0.0000 -0.0000
vn 0.9657 -0.2596 -0.0000
vn 0.9473 -0.3195 -0.0216
vn 0.9843 -0.1763 -0.0102
vn 0.9840 -0.1784 -0.0000
vn 0.9810 0.1940 -0.0000
vn 0.9888 0.1492 0.0034
vn 0.9814 0.1919 0.0012
vn 0.9771 0.2125 0.0073
vn 0.9830 0.1838 0.0002
vn 0.9893 0.1458 0.0007
vn 0.9850 0.1727 0.0052
vn 0.9657 -0.2596 0.0012
vn 0.9840 -0.1783 0.0007
vn 0.9870 0.1605 0.0005
vn 0.7790 0.6270 -0.0000
vn 0.9885 0.1514 0.0001
vn 0.9657 -0.2596 0.0007
vn 0.9840 -0.1782 0.0005
vn 0.7242 0.6895 0.0114
vn 0.7330 0.6802 -0.0090
vn 0.7281 0.6855 0.0059
vn 0.2918 0.9427 0.1615
vn 0.7151 0.6989 0.0120
vn 0.7316 0.6812 0.0271
vn 0.7522 0.6583 0.0275
vn 0.5940 0.8001 0.0830
vn 0.9259 0.3777 -0.0000
vn 0.7098 0.7044 0.0066
vn 0.9851 0.1722 0.0003
vn 0.9839 -0.1785 0.0003
vn 0.9657 -0.2597 0.0005
vn -0.9657 -0.2597 0.0010
vn -0.9839 -0.1786 0.0006
vn -1.0000 -0.0000 -0.0000
vn -0.9657 -0.2596 -0.0000
vn -0.9473 -0.3195 -0.0216
vn -0.9843 -0.1763 -0.0102
vn -0.9840 -0.1784 -0.0000
vn -0.9810 0.1940 -0.0000
vn -0.9888 0.1492 0.0034
vn -0.9814 0.1919 0.0012
vn -0.9771 0.2125 0.0073
vn -0.9830 0.1838 0.0002
vn -0.9893 0.1458 0.0007
vn -0.9850 0.1727 0.0052
vn -0.9657 -0.2596 0.0012
vn -0.9840 -0.1783 0.0007
vn -0.9870 0.1605 0.0005
vn -0.7790 0.6270 -0.0000
vn -0.9885 0.1514 0.0001
vn -0.9657 -0.2596 0.0007
vn -0.9840 -0.1782 0.0005
vn -0.7242 0.6895 0.0114
vn -0.7330 0.6802 -0.0090
vn -0.7281 0.6855 0.0059
vn -0.2918 0.9427 0.1615
vn -0.7151 0.6989 0.0120
vn -0.7316 0.6812 0.0271
vn -0.7522 0.6583 0.0275
vn -0.5940 0.8001 0.0830
vn -0.9259 0.3777 -0.0000
vn -0.7098 0.7044 0.0066
vn -0.9851 0.1722 0.0003
vn -0.9839 -0.1785 0.0003
vn -0.9657 -0.2597 0.0005
vt 0.000000 0.000000
vt 0.000000 0.000000
vt 0.000000 0.000000
vt 0.000000 0.000000
vt 0.000000 0.000000
vt 0.000000 0.000000
vt 0.000000 0.000000
vt 0.000000 0.000000
vt 0.000000 0.000000
vt 0.000000 0.000000
vt 0.000000 0.000000
vt 0.000000 0.000000
vt 0.000000 0.000000
vt 0.000000 0.000000
vt 0.000000 0.000000
vt 0.000000 0.000000
vt 0.000000 0.000000
vt 0.000000 0.000000
vt 0.000000 0.000000
vt 0.000000 0.000000
vt 0.000000 0.000000
vt 0.000000 0.000000
vt 0.000000 0.000000
vt 0.000000 0.000000
vt 0.000000 0.000000
vt 0.000000 0.000000
vt 0.000000 0.000000
vt 0.000000 0.000000
vt 0.000000 0.000000
vt 0.000000 0.000000
vt 0.000000 0.000000
vt 0.000000 0.000000
vt 0.000000 0.000000
vt 0.000000 0.000000
vt 0.000000 0.000000
vt 0.000000 0.000000
vt 0.000000 0.000000
vt 0.000000 0.000000
vt 0.000000 0.000000
vt 0.000000 0.000000
vt 0.000000 0.000000
vt 0.000000 0.000000
vt 0.000000 0.000000
vt 0.000000 0.000000
vt 0.000000 0.000000
vt 0.000000 0.000000
vt 0.000000 0.000000
vt 0.000000 0.000000
vt 0.000000 0.000000
vt 0.000000 0.000000
vt 0.000000 0.000000
vt 0.000000 0.000000
vt 0.000000 0.000000
vt 0.000000 0.000000
vt 0.000000 0.000000
vt 0.000000 0.000000
vt 0.000000 0.000000
vt 0.000000 0.000000
vt 0.000000 0.000000
vt 0.000000 0.000000
vt 0.000000 0.000000
vt 0.000000 0.000000
vt 0.000000 0.000000
vt 0.000000 0.000000
vt 0.000000 0.000000
vt 0.000000 0.000000
vt 0.000000 0.000000
vt 0.000000 0.000000
vt 0.000000 0.000000
vt 0.000000 0.000000
vt 0.000000 0.000000
vt 0.000000 0.000000
vt 0.000000 0.000000
vt 0.000000 0.000000
vt 0.000000 0.000000
vt 0.000000 0.000000
vt 0.000000 0.000000
vt 0.000000 0.000000
vt 0.000000 0.000000
vt 0.000000 0.000000
vt 0.000000 0.000000
vt 0.000000 0.000000
vt 0.000000 0.000000
vt 0.000000 0.000000
vt 0.000000 0.000000
vt 0.000000 0.000000
vt 0.000000 0.000000
vt 0.000000 0.000000
vt 0.000000 0.000000
vt 0.000000 0.000000
vt 0.000000 0.000000
vt 0.000000 0.000000
vt 0.000000 0.000000
vt 0.000000 0.000000
vt 0.000000 0.000000
vt 0.000000 0.000000
vt 0.000000 0.000000
vt 0.000000 0.000000
vt 0.000000 0.000000
vt 0.000000 0.000000
vt 0.000000 0.000000
vt 0.000000 0.000000
vt 0.000000 0.000000
vt 0.000000 0.000000
vt 0.000000 0.000000
vt 0.000000 0.000000
vt 0.000000 0.000000
vt 0.000000 0.000000
vt 0.000000 0.000000
vt 0.000000 0.000000
vt 0.000000 0.000000
vt 0.000000 0.000000
vt 0.000000 0.000000
vt 0.000000 0.000000
vt 0.000000 0.000000
vt 0.000000 0.000000
vt 0.000000 0.000000
vt 0.000000 0.000000
vt 0.000000 0.000000
vt 0.000000 0.000000
vt 0.000000 0.000000
vt 0.000000 0.000000
vt 0.000000 0.000000
vt 0.000000 0.000000
vt 0.000000 0.000000
vt 0.000000 0.000000
vt 0.000000 0.000000
vt 0.000000 0.000000
vt 0.000000 0.000000
vt 0.000000 0.000000
vt 0.000000 0.000000
vt 0.000000 0.000000
vt 0.000000 0.000000
vt 0.000000 0.000000
vt 0.000000 0.000000
vt 0.000000 0.000000
vt 0.000000 0.000000
vt 0.000000 0.000000
vt 0.000000 0.000000
vt 0.000000 0.000000
vt 0.000000 0.000000
vt 0.000000 0.000000
vt 0.000000 0.000000
vt 0.000000 0.000000
vt 0.000000 0.000000
vt 0.000000 0.000000
s 0
f 1/1/1 46/46/1 42/42/1 2/2/1
f 3/3/2 2/2/2 42/42/2 44/44/2
f 4/4/3 3/3/3 44/44/3 43/43/3
f 5/5/3 4/4/3 36/36/3
f 9/9/4 8/8/4 32/32/4 27/27/4
f 7/7/3 6/6/3 20/20/3 19/19/3
f 6/6/3 33/33/3 21/21/3 20/20/3
f 15/15/5 16/16/5 26/26/5 25/25/5
f 13/13/3 14/14/3 24/24/3 23/23/3
f 14/14/6 15/15/6 25/25/6 24/24/6
f 12/12/3 13/13/3 40/40/3
f 8/8/7 7/7/7 19/19/7 32/32/7
f 5/5/8 29/29/8 34/34/8 33/33/8
f 12/12/9 40/40/9 39/39/9 30/30/9
f 5/5/10 36/36/10 35/35/10 29/29/10
f 33/33/3 6/6/3 5/5/3
f 33/33/11 34/34/11 28/28/11 21/21/11
f 36/36/3 4/4/3 43/43/3 41/41/3
f 35/35/12 36/36/12 41/41/12 45/45/12
f 37/37/3 11/11/3 12/12/3
f 38/38/13 37/37/13 12/12/13 30/30/13
f 39/39/14 40/40/14 22/22/14 31/31/14
f 40/40/3 13/13/3 23/23/3 22/22/3
f 66/66/3 68/68/3 49/49/3 47/47/3
f 67/67/15 71/71/15 52/52/15 48/48/15
f 69/69/16 67/67/16 48/48/16 50/50/16
f 70/70/17 66/66/17 47/47/17 51/51/17
f 68/68/3 69/69/3 50/50/3 49/49/3
f 39/39/18 31/31/18 56/56/18 60/60/18
f 51/51/19 47/47/19 37/37/19 38/38/19
f 47/47/3 49/49/3 11/11/3 37/37/3
f 49/49/3 50/50/3 10/10/3 11/11/3
f 48/48/20 52/52/20 18/18/20 17/17/20
f 50/50/21 48/48/21 17/17/21 10/10/21
f 51/51/22 38/38/22 59/59/22 62/62/22
f 35/35/23 45/45/23 61/61/23 58/58/23
f 38/38/24 30/30/24 55/55/24 59/59/24
f 28/28/25 34/34/25 57/57/25 53/53/25
f 70/70/26 51/51/26 62/62/26 72/72/26
f 29/29/27 35/35/27 58/58/27 54/54/27
f 30/30/28 39/39/28 60/60/28 55/55/28
f 34/34/29 29/29/29 54/54/29 57/57/29
f 62/62/30 59/59/30 63/63/30 65/65/30
f 55/55/30 63/63/30 59/59/30
f 72/72/30 62/62/30 65/65/30 73/73/30
f 61/61/30 72/72/30 73/73/30 64/64/30
f 45/45/31 70/70/31 72/72/31 61/61/31
f 43/43/3 44/44/3 69/69/3 68/68/3
f 45/45/32 41/41/32 66/66/32 70/70/32
f 44/44/33 42/42/33 67/67/33 69/69/33
f 42/42/34 46/46/34 71/71/34 67/67/34
f 41/41/3 43/43/3 68/68/3 66/66/3
f 74/74/35 75/75/35 115/115/35 119/119/35
f 76/76/36 117/117/36 115/115/36 75/75/36
f 77/77/37 116/116/37 117/117/37 76/76/37
f 78/78/37 109/109/37 77/77/37
f 82/82/38 100/100/38 105/105/38 81/81/38
f 80/80/37 92/92/37 93/93/37 79/79/37
f 79/79/37 93/93/37 94/94/37 106/106/37
f 88/88/39 98/98/39 99/99/39 89/89/39
f 86/86/37 96/96/37 97/97/37 87/87/37
f 87/87/40 97/97/40 98/98/40 88/88/40
f 85/85/37 113/113/37 86/86/37
f 81/81/41 105/105/41 92/92/41 80/80/41
f 78/78/42 106/106/42 107/107/42 102/102/42
f 85/85/43 103/103/43 112/112/43 113/113/43
f 78/78/44 102/102/44 108/108/44 109/109/44
f 106/106/37 78/78/37 79/79/37
f 106/106/45 94/94/45 101/101/45 107/107/45
f 109/109/37 114/114/37 116/116/37 77/77/37
f 108/108/46 118/118/46 114/114/46 109/109/46
f 110/110/37 85/85/37 84/84/37
f 111/111/47 103/103/47 85/85/47 110/110/47
f 112/112/48 104/104/48 95/95/48 113/113/48
f 113/113/37 95/95/37 96/96/37 86/86/37
f 139/139/37 120/120/37 122/122/37 141/141/37
f 140/140/49 121/121/49 125/125/49 144/144/49
f 142/142/50 123/123/50 121/121/50 140/140/50
f 143/143/51 124/124/51 120/120/51 139/139/51
f 141/141/37 122/122/37 123/123/37 142/142/37
f 112/112/52 133/133/52 129/129/52 104/104/52
f 124/124/53 111/111/53 110/110/53 120/120/53
f 120/120/37 110/110/37 84/84/37 122/122/37
f 122/122/37 84/84/37 83/83/37 123/123/37
f 121/121/54 90/90/54 91/91/54 125/125/54
f 123/123/55 83/83/55 90/90/55 121/121/55
f 124/124/56 135/135/56 132/132/56 111/111/56
f 108/108/57 131/131/57 134/134/57 118/118/57
f 111/111/58 132/132/58 128/128/58 103/103/58
f 101/101/59 126/126/59 130/130/59 107/107/59
f 143/143/60 145/145/60 135/135/60 124/124/60
f 102/102/61 127/127/61 131/131/61 108/108/61
f 103/103/62 128/128/62 133/133/62 112/112/62
f 107/107/63 130/130/63 127/127/63 102/102/63
f 135/135/64 138/138/64 136/136/64 132/132/64
f 128/128/64 132/132/64 136/136/64
f 145/145/64 146/146/64 138/138/64 135/135/64
f 134/134/64 137/137/64 146/146/64 145/145/64
f 118/118/65 134/134/65 145/145/65 143/143/65
f 116/116/37 141/141/37 142/142/37 117/117/37
f 118/118/66 143/143/66 139/139/66 114/114/66
f 117/117/67 142/142/67 140/140/67 115/115/67
f 115/115/68 140/140/68 144/144/68 119/119/68
f 114/114/37 139/139/37 141/141/37 116/116/37
